PathFileType	4	(X/Y/Z)	Kaydara	
DataRate	CameraRate	NumFrames	NumMarkers	Units	OrigDataRate	OrigDataStartFrame	OrigNumFrames	
60.00	60.00	4	74	mm	60.00	531	164	
Frame#	Time	N_lasi			N_rasi			N_rpsi			N_lpsi			N_fneck			N_bneck			N_fhead			N_rhead			N_lhead			N_rshld			N_relbtop			N_relbext			N_relblow			N_rwrext			N_rwrtop			N_rwrlow			N_lshld			N_lelbext			N_lelblow			N_lelbtop			N_lwrext			N_lwrtop			N_lwrlow			N_rtopleg			N_ltopleg			N_rkneefr			N_rkneebk			N_rkneeis			N_lkneefr			N_lknssbk			N_lkneeis			N_rankfr			N_rankis			N_rankbk			N_lankfr			N_lankbk			N_lankis			D_lasi			D_rasi			D_rpsi			D_lpsi			D_fneck			D_bneck			D_fhead			D_rhead			D_lhead			D_rshld			D_relbtop			D_relbext			D_relblow			D_rwrext			D_rwrtop			D_rwrlow			D_lshld			D_lelbext			D_lelblow			D_lelbtop			D_lwrext			D_lwrtop			D_lwrlow			D_rtopleg			D_ltopleg			D_rkneefr			D_rkneebk			D_rkneeis			D_lkneefr			D_lknssbk			D_lkneeis			D_rankfr			D_rankis			D_rankbk			D_lankfr			D_lankbk			D_lankis			
		X1	Y1	Z1	X2	Y2	Z2	X3	Y3	Z3	X4	Y4	Z4	X5	Y5	Z5	X6	Y6	Z6	X7	Y7	Z7	X8	Y8	Z8	X9	Y9	Z9	X10	Y10	Z10	X11	Y11	Z11	X12	Y12	Z12	X13	Y13	Z13	X14	Y14	Z14	X15	Y15	Z15	X16	Y16	Z16	X17	Y17	Z17	X18	Y18	Z18	X19	Y19	Z19	X20	Y20	Z20	X21	Y21	Z21	X22	Y22	Z22	X23	Y23	Z23	X24	Y24	Z24	X25	Y25	Z25	X26	Y26	Z26	X27	Y27	Z27	X28	Y28	Z28	X29	Y29	Z29	X30	Y30	Z30	X31	Y31	Z31	X32	Y32	Z32	X33	Y33	Z33	X34	Y34	Z34	X35	Y35	Z35	X36	Y36	Z36	X37	Y37	Z37	X38	Y38	Z38	X39	Y39	Z39	X40	Y40	Z40	X41	Y41	Z41	X42	Y42	Z42	X43	Y43	Z43	X44	Y44	Z44	X45	Y45	Z45	X46	Y46	Z46	X47	Y47	Z47	X48	Y48	Z48	X49	Y49	Z49	X50	Y50	Z50	X51	Y51	Z51	X52	Y52	Z52	X53	Y53	Z53	X54	Y54	Z54	X55	Y55	Z55	X56	Y56	Z56	X57	Y57	Z57	X58	Y58	Z58	X59	Y59	Z59	X60	Y60	Z60	X61	Y61	Z61	X62	Y62	Z62	X63	Y63	Z63	X64	Y64	Z64	X65	Y65	Z65	X66	Y66	Z66	X67	Y67	Z67	X68	Y68	Z68	X69	Y69	Z69	X70	Y70	Z70	X71	Y71	Z71	X72	Y72	Z72	X73	Y73	Z73	X74	Y74	Z74	

144	8.833	128.92381	1089.20723	-389.41616	334.50233	1127.24953	-538.31478	536.95740	1169.45648	-313.72051	247.23427	1144.67926	-120.27053	445.88085	1527.39914	-332.65942	343.08338	1628.28247	-302.45653	125.23176	1691.88477	-419.71962	320.84881	1735.34210	-380.44540	209.80131	1709.89609	-272.24619	522.92122	1479.51675	-471.30096	639.61514	1165.83771	-455.06790	610.21389	1132.17842	-471.81992	573.90007	1165.36629	-514.29543	625.23670	857.74025	-506.69731	584.13746	856.01280	-531.64124	547.65785	860.51796	-501.25347	163.14445	1473.08136	-125.15378	153.35309	1126.80824	-182.05898	60.15716	1148.30612	-168.10717	110.51247	1125.32753	-100.26181	44.29868	867.77565	-261.79190	25.27864	883.05321	-303.62909	73.17906	892.44812	-324.01852	475.85972	981.67702	-530.10628	184.55301	971.65222	-141.15410	294.15209	557.17350	-596.46606	417.02038	538.21278	-526.31920	277.21386	527.65636	-469.86942	274.34469	447.24411	-282.26053	311.19293	518.66180	-169.49659	415.87288	503.84918	-263.48135	370.55298	146.79878	-615.86979	316.07708	146.37706	-559.63963	392.56084	125.09754	-524.08554	455.25482	184.20664	-92.81888	472.48829	224.52526	-22.70036	521.67912	219.84617	-99.61887	-286.51825	1050.15350	1107.64236	-349.25373	1053.47466	1386.54068	-534.78664	1146.04210	1290.40878	-484.80171	1130.33348	1080.07866	-303.83865	1536.37604	1234.90494	-422.91641	1611.59622	1236.53358	-190.88766	1706.43799	1206.79169	-334.99466	1740.86670	1317.03400	-360.98957	1733.23318	1162.94556	-389.52347	1485.38818	1440.38605	-420.83015	1152.15523	1530.66452	-380.83145	1142.82715	1464.55872	-342.78851	1185.80795	1551.41373	-297.54631	939.53575	1603.74374	-242.57671	955.98831	1592.01889	-254.39829	948.42842	1537.67654	-415.39890	1505.01328	1010.54062	-432.01241	1168.52974	1011.09253	-415.24700	1212.06360	919.91158	-484.87915	1182.78587	951.07445	-401.53973	954.38568	879.54361	-358.58551	961.01982	889.07867	-356.04431	958.70087	940.15526	-445.20924	999.06715	1423.15872	-400.44262	1010.13603	1018.87398	-332.90100	471.64333	1377.96524	-436.69781	486.64864	1405.46829	-423.41991	465.53680	1281.88141	-147.75084	499.57726	1104.08493	-256.99440	542.96803	1074.87938	-206.54810	500.95573	1189.17465	-378.28068	129.31559	1398.07907	-406.28059	128.07191	1333.70209	-459.31030	124.50218	1397.23724	-395.95413	226.52420	1120.55717	-455.38242	261.89465	1090.76164	-429.33182	250.06998	1173.11066 
145	8.850	122.50051	1093.42094	-400.50266	324.06178	1131.75537	-552.87189	530.82947	1173.22388	-327.63851	244.52147	1148.28590	-135.65466	438.65005	1530.47531	-348.30444	335.85255	1631.35880	-318.10158	115.05206	1693.58322	-430.53558	311.33827	1737.44797	-396.97945	203.36761	1712.55722	-285.36234	512.47593	1482.88193	-490.19596	627.29378	1167.92374	-477.22145	598.06145	1134.87938	-492.78511	560.45155	1168.49640	-535.03822	607.55196	860.59036	-532.22118	566.18587	860.04845	-556.75495	530.09953	864.50714	-525.87887	158.11005	1476.39893	-138.15364	151.58717	1129.37416	-191.22877	58.74865	1149.41498	-176.10643	110.49502	1129.12590	-108.49213	45.11355	863.81950	-255.26403	25.32811	876.11137	-297.65190	72.84069	884.92142	-319.12367	466.36059	981.79192	-546.53248	181.27211	972.87697	-153.74075	287.23454	554.92035	-604.27353	410.00328	538.63125	-532.64877	271.39324	526.77586	-477.06120	247.45525	445.99079	-303.64376	288.12702	518.55148	-193.24409	390.02934	499.23908	-290.65779	369.06414	146.00643	-616.36463	314.29081	145.34615	-560.16151	391.16520	125.09469	-524.42928	439.07810	192.75623	-107.73870	457.65701	237.71240	-39.97558	504.35860	229.55750	-117.22300	-277.28804	1050.76378	1107.53578	-334.96338	1053.47794	1388.46756	-521.65630	1146.44478	1296.43890	-476.99730	1130.77972	1085.29274	-292.57563	1537.26532	1234.32037	-411.53217	1612.38846	1238.82736	-180.63301	1707.39761	1202.99736	-321.81087	1741.98593	1316.69815	-351.75552	1733.98361	1163.56972	-372.97215	1487.34146	1442.10251	-396.98032	1153.26675	1534.49921	-359.90704	1144.64844	1468.36029	-320.22923	1189.78996	1554.93011	-264.41275	945.23552	1604.82910	-210.49194	963.96332	1592.56104	-222.85427	955.99770	1538.20099	-409.96014	1505.36118	1013.29590	-427.08145	1169.77638	1013.34709	-416.14586	1213.19893	922.08359	-484.35886	1184.15115	956.19987	-404.51744	955.44312	881.28609	-361.12324	962.17697	888.24722	-356.83865	959.93813	939.92485	-430.71850	999.23058	1426.75156	-393.51101	1011.17714	1020.84541	-327.45556	471.08471	1377.47360	-430.91320	487.07600	1406.16867	-419.86935	466.45573	1282.14310	-131.61663	504.89407	1103.58757	-242.86772	543.99990	1075.96107	-188.64378	505.28675	1189.57138	-376.34171	129.16467	1397.00943	-405.43304	128.22992	1333.03192	-457.27646	125.29241	1396.88614	-362.37598	219.51397	1129.69315	-424.97635	250.45092	1101.74431	-395.75024	241.63273	1183.18626 
146	8.867	115.89241	1098.30345	-410.19386	313.66230	1135.50758	-565.79895	523.71227	1177.11258	-347.51629	242.84588	1151.79062	-151.12854	431.21323	1533.54645	-363.31539	328.41576	1634.42993	-333.11253	105.12175	1695.50751	-440.38643	301.70191	1739.76196	-412.66254	196.40388	1715.30167	-297.65835	501.41644	1486.92337	-509.19594	615.23102	1171.07651	-499.81331	585.92041	1138.54530	-513.85445	546.76704	1172.48947	-555.55107	589.12952	864.47220	-557.46162	547.62360	865.35110	-581.77876	511.94077	869.46640	-550.33821	153.74927	1480.13885	-150.12495	150.56067	1132.20657	-200.36900	57.77942	1151.02112	-183.64182	110.87775	1133.31223	-116.32412	46.34544	861.25191	-248.09210	25.89406	870.39352	-290.89254	73.00412	878.51723	-313.48959	456.71402	981.84387	-563.46962	178.19511	974.49471	-165.03166	282.23917	552.60712	-610.68626	404.70825	538.61900	-537.27516	266.71436	526.80408	-482.81788	220.84341	447.98019	-324.88476	263.95405	519.05190	-215.77391	362.95998	496.88412	-317.60061	368.08567	145.18824	-616.59168	312.70731	144.63511	-560.63953	389.74438	125.49350	-524.22546	422.17838	202.42735	-125.74173	440.64548	250.88562	-59.90860	486.20354	240.99216	-137.43052	-269.12210	1050.56290	1108.22243	-320.88558	1053.18405	1389.84894	-509.12750	1147.59415	1301.62048	-470.10181	1130.78842	1089.04259	-281.29217	1537.81815	1233.28026	-400.08469	1612.73941	1240.70374	-170.44460	1707.96722	1198.82584	-308.59488	1742.65991	1315.82520	-342.49123	1734.32510	1163.91129	-356.28933	1488.74054	1443.40408	-373.67409	1153.93692	1537.87064	-339.50798	1146.05331	1471.49490	-298.17694	1193.38074	1557.57614	-231.89844	950.72014	1604.29153	-178.96671	971.93840	1591.68182	-191.58646	964.00093	1537.64725	-404.43497	1505.21194	1015.69740	-424.40826	1170.34081	1016.65100	-416.18099	1213.72742	924.35593	-482.81174	1184.70398	961.55525	-406.97891	955.82390	883.40744	-363.15659	962.77298	887.71286	-357.48165	960.66338	940.07278	-416.09329	999.47647	1429.61624	-386.53740	1011.62354	1023.33740	-321.86230	470.22106	1377.01630	-424.98497	487.48856	1406.82785	-416.12572	467.13417	1282.09991	-117.26950	509.19930	1102.57057	-230.13531	543.85998	1077.28050	-172.50277	508.07682	1188.96317	-374.86843	128.96357	1396.03485	-404.18503	128.61110	1332.20291	-455.59952	125.99465	1396.46744	-327.58575	210.98192	1138.30811	-393.61580	237.82080	1111.45706	-361.24290	232.01359	1192.07809 
147	8.883	109.19829	1103.20862	-418.20526	302.94186	1138.35442	-577.43950	512.16789	1181.42632	-382.83104	241.82486	1154.65500	-163.85208	423.39935	1536.72272	-377.90154	320.60184	1637.60620	-347.69867	94.78433	1697.46887	-449.88083	291.88038	1742.23160	-427.28325	190.00727	1718.02887	-309.65349	489.58485	1491.18149	-528.12672	602.74277	1174.66011	-521.76060	573.57563	1142.61864	-534.61025	533.10070	1176.86684	-576.08147	569.96307	869.12361	-582.36351	528.46287	871.32736	-606.48125	492.93613	875.08850	-574.76574	149.73467	1483.82126	-161.08566	149.77153	1134.93233	-208.78334	56.84734	1152.87224	-190.62962	111.55364	1137.37564	-123.84912	47.87178	859.95560	-240.64585	26.90552	866.02592	-283.71784	73.89356	872.83989	-306.91648	446.85417	983.16513	-579.85950	175.79517	976.67969	-175.44703	277.87209	551.70700	-614.95560	400.41962	539.08203	-541.76315	262.88433	527.08092	-487.40402	195.02813	451.73660	-346.67835	239.33310	520.80276	-237.11395	336.78947	498.11893	-342.95753	367.08027	144.82753	-616.98021	311.81992	144.27251	-560.87315	388.50227	126.50660	-523.90739	407.31380	213.68511	-146.58171	424.92889	263.73039	-82.16330	469.68422	254.70312	-159.11533	-260.62201	1050.03075	1108.28224	-306.44558	1052.54326	1390.56763	-496.52451	1147.96326	1306.65039	-461.04397	1130.92461	1093.23753	-270.05716	1538.00400	1231.81816	-388.57605	1612.72202	1242.25334	-160.47834	1708.47717	1194.18480	-295.34220	1743.05725	1314.37454	-333.23013	1734.31503	1163.80775	-339.47685	1489.70551	1444.10385	-350.91976	1154.30443	1540.14496	-317.26057	1148.01231	1472.88345	-276.42830	1196.32027	1559.17953	-199.80455	955.95322	1601.95908	-148.00531	979.68353	1589.51523	-160.45990	971.94054	1535.37720	-398.97285	1504.62112	1018.01659	-420.53745	1170.00053	1019.73465	-415.69443	1213.63022	927.22282	-480.78148	1184.82506	966.88370	-408.83884	955.71770	885.85220	-364.72748	962.80632	887.75528	-355.18223	960.71732	939.16306	-401.79958	999.62852	1432.26730	-379.74922	1011.55212	1025.76988	-316.21710	469.23115	1376.89224	-418.87028	488.04035	1407.59308	-411.03313	467.77935	1282.96753	-104.42546	512.54322	1101.21704	-218.63024	542.73880	1078.57803	-157.20205	509.70119	1188.95203	-373.26569	128.72327	1395.50354	-403.03383	129.34658	1331.29715	-453.83820	126.66672	1396.36978	-293.50407	203.57203	1143.74893	-361.33801	224.64500	1120.35675	-325.89485	222.10745	1199.45534 
